<svg xmlns="http://www.w3.org/2000/svg" width="233" height="96" viewBox="0 0 233 96">
  <title>EfTech-logo</title>
  <g>
    <path d="M48.00006,0A48,48,0,1,0,96,47.99994,48,48,0,0,0,48.00006,0ZM12.30047,68.5493l8.68953-55H51.36593a55.8106,55.8106,0,0,1-.46936,7.528c-0.26207,1.07021-.69217,3.71926-1.29211,4.36943-0.59994.65382-1.36972-.246-2.30936,0.04073-0.93963.28856-2.11394-.93817-3.52293-0.93817H30.14981l-2.11394,12h15.267l-1.409,9h-15.267l-2.34862,14h13.857c2.40067,0,4.0973,3.043,5.089,3.90323,0.99077,0.862,1.48752,3.43548,1.48752,5.10472,0,0.62459-.053-0.3948-0.15615.22979-0.10593.62825-.23559-0.23774-0.39174-0.23774H12.30047ZM78.533,29.23175a8.61922,8.61922,0,0,0-2.19247-3.01522,6.03074,6.03074,0,0,0-3.99229-1.13413,5.56424,5.56424,0,0,0-4.111,1.44643c-0.96611.96794-1.65737,0.00952-2.07468,2.46042l-0.704,1.56005H76.88846l-1.33046,9H64.12719L59.19527,71.73287c-0.78257,4.96023-2.40158,9.92072-4.85339,12.68756A13.90941,13.90941,0,0,1,43.616,89.11963a17.87925,17.87925,0,0,1-3.32752-.03737,13.24977,13.24977,0,0,1-3.28825-.88161,7.04272,7.04272,0,0,1-2.544-1.84888,4.4497,4.4497,0,0,1-1.01816-2.979,4.96862,4.96862,0,0,1,.90037-2.76245,8.131,8.131,0,0,1,2.77963-2.45691,8.23722,8.23722,0,0,0,2.46642,2.39127,6.35591,6.35591,0,0,0,3.3266.824,4.47981,4.47981,0,0,0,3.87541-1.91654,13.56752,13.56752,0,0,0,1.99615-5.52037l6.81118-40.94354q1.25193-8.53338,5.55834-12.25251,4.305-3.71469,11.35228-3.71828a18.05156,18.05156,0,0,1,5.59761.78352,9.9675,9.9675,0,0,1,3.79688,2.113,5.13016,5.13016,0,0,1,1.80073,3.91559,4.77517,4.77517,0,0,1-1.29211,3.09193A7.945,7.945,0,0,1,78.533,29.23175Z" style="fill: #4d4d4d"/>
    <path d="M122.39767,29.46551L115.19475,73.1506H104.626l7.202-43.68508H96.87514q0.0767-5.00771,1.80073-6.8888,1.72174-1.87926,6.18476-1.87926h33.58565a21.935,21.935,0,0,1-.46936,4.1877,5.84928,5.84928,0,0,1-1.33137,2.7011,5.15519,5.15519,0,0,1-2.4655,1.44826,13.813,13.813,0,0,1-3.71926.431h-8.06311Z" style="fill: #cdcdcd"/>
    <path d="M153.20741,61.40749q3.99275,2.03815,3.9932,4.931a4.37661,4.37661,0,0,1-.93963,2.81981,10.30283,10.30283,0,0,1-2.03541,1.95779,21.244,21.244,0,0,1-4.4233,2.19156,20.78124,20.78124,0,0,1-7.16366,1.01725,17.70817,17.70817,0,0,1-7.20293-1.29119,12.79907,12.79907,0,0,1-4.69724-3.4444,13.11973,13.11973,0,0,1-2.5833-4.97119,21.84117,21.84117,0,0,1-.78257-5.87338,27.94718,27.94718,0,0,1,1.48752-9.12054,22.91716,22.91716,0,0,1,4.227-7.55357,20.25367,20.25367,0,0,1,6.73357-5.12825,20.719,20.719,0,0,1,9.08127-1.91761,13.95759,13.95759,0,0,1,4.85339.78166,10.66972,10.66972,0,0,1,3.5622,2.11485A8.77113,8.77113,0,0,1,159.51,41.05156a10.17792,10.17792,0,0,1,.7433,3.91559,11.80152,11.80152,0,0,1-1.95688,7.08422,14.1593,14.1593,0,0,1-4.93192,4.26806,20.60233,20.60233,0,0,1-6.498,2.113,43.40185,43.40185,0,0,1-6.655.54789h-1.409a9.93618,9.93618,0,0,1-1.25284-.07853V59.373a7.71465,7.71465,0,0,0,.58716,3.13028,6.76152,6.76152,0,0,0,1.48752,2.19156,5.97444,5.97444,0,0,0,2.03541,1.293,6.26824,6.26824,0,0,0,2.23174.431,9.77936,9.77936,0,0,0,5.47981-1.48843A15.5055,15.5055,0,0,0,153.20741,61.40749ZM140.6032,52.718a17.02756,17.02756,0,0,0,3.60146-.39083,12.13812,12.13812,0,0,0,3.28825-1.21449,7.32372,7.32372,0,0,0,2.38789-2.03632,4.66356,4.66356,0,0,0,.89945-2.85633,3.58867,3.58867,0,0,0-.78257-2.31027,3.33168,3.33168,0,0,0-2.74036-.9789,7.23546,7.23546,0,0,0-5.67523,2.66092,16.1094,16.1094,0,0,0-3.32752,7.04586,10.6192,10.6192,0,0,0,1.21358.08036h1.135Z" style="fill: #cdcdcd"/>
    <path d="M189.88126,47.86366a8.67342,8.67342,0,0,0-2.5833-3.68,6.88132,6.88132,0,0,0-4.14935-1.09578,6.68342,6.68342,0,0,0-3.99229,1.29119,10.27222,10.27222,0,0,0-3.01431,3.52476,19.97881,19.97881,0,0,0-1.87926,5.16477A28.48209,28.48209,0,0,0,173.598,59.373q0.0767,3.59964,1.79982,5.24513a5.60615,5.60615,0,0,0,3.9932,1.64367,7.93439,7.93439,0,0,0,4.50183-1.33137,13.24607,13.24607,0,0,0,3.48367-3.4444,7.68624,7.68624,0,0,1,3.20972,2.113,4.16673,4.16673,0,0,1,1.01816,2.66274q0,2.50386-2.66183,4.69724a16.20607,16.20607,0,0,1-3.9932,2.27009,17.72757,17.72757,0,0,1-6.81118,1.09578,17.207,17.207,0,0,1-7.08513-1.29119,12.49267,12.49267,0,0,1-4.61871-3.4444,12.98525,12.98525,0,0,1-2.50568-4.97119,22.89749,22.89749,0,0,1-.7433-5.87338,29.3829,29.3829,0,0,1,1.409-9.12054,22.62237,22.62237,0,0,1,4.07082-7.55357,19.87257,19.87257,0,0,1,6.498-5.12825,19.16725,19.16725,0,0,1,8.69045-1.91761,13.94116,13.94116,0,0,1,6.45871,1.29119,9.52709,9.52709,0,0,1,3.71835,3.249,5.53435,5.53435,0,0,1,.93963,2.73945,4.03168,4.03168,0,0,1-1.44826,3.406A13.43363,13.43363,0,0,1,189.88126,47.86366Z" style="fill: #cdcdcd"/>
    <path d="M213.1328,39.40789a17.64139,17.64139,0,0,1,4.22788-3.09192,12.93772,12.93772,0,0,1,6.11536-1.29119,9.74655,9.74655,0,0,1,5.7565,1.56514A8.21626,8.21626,0,0,1,232.308,40.5822a15.17837,15.17837,0,0,1,.789,5.00954,24.27946,24.27946,0,0,1-.158,2.77963q-0.15752,1.37246-.39448,2.70292L228.83806,73.1506H218.22178l3.67908-22.07631c0.1041-.57346.18263-1.12317,0.23559-1.6455q0.0767-.78074.07762-1.56514a5.45027,5.45027,0,0,0-.82183-3.05357q-0.82183-1.25193-3.32752-1.25284a5.70762,5.70762,0,0,0-4.384,2.11485,10.52469,10.52469,0,0,0-2.42624,5.40219l-3.68,22.07631H197.00566l9.1598-55.19442c0.62642-.10227,1.25284-0.18263,1.87835-0.23377,0.62642-.05114,1.20079-0.07853,1.72311-0.07853q3.20926,0,4.57945,1.52679a5.48114,5.48114,0,0,1,1.36972,3.79688c0,0.31412-.01278.62642-0.03835,0.93872-0.02739.31412-.06666,0.62825-0.1178,0.94054Z" style="fill: #cdcdcd"/>
  </g>
</svg>
